<?xml version="1.0" standalone="no"?>
<!DOCTYPE svg PUBLIC "-//W3C//DTD SVG 20010904//EN"
 "http://www.w3.org/TR/2001/REC-SVG-20010904/DTD/svg10.dtd">
<svg version="1.0" xmlns="http://www.w3.org/2000/svg"
 width="500.000000pt" height="500.000000pt" viewBox="0 0 500.000000 500.000000"
 preserveAspectRatio="xMidYMid meet">

<g transform="translate(0.000000,500.000000) scale(0.100000,-0.100000)"
fill="#000000" stroke="none">
<path d="M2304 4231 c-23 -10 -52 -34 -65 -52 l-24 -34 -3 -1685 c-2 -1626 -2
-1686 16 -1720 37 -68 120 -103 193 -81 28 9 186 140 604 501 l566 490 507 0
c337 0 520 4 547 11 50 14 100 64 114 114 15 53 15 1304 1 1357 -14 48 -55 97
-97 114 -26 11 -138 14 -560 14 l-528 1 -558 484 c-306 266 -571 488 -589 494
-44 16 -77 13 -124 -8z"/>
<path d="M813 4211 c-66 -42 -234 -283 -343 -494 -144 -277 -230 -539 -281
-857 -26 -161 -36 -502 -20 -661 55 -538 235 -1002 554 -1423 87 -114 157
-141 247 -93 30 16 51 37 67 67 40 76 30 123 -52 230 -247 325 -410 715 -472
1129 -22 145 -24 513 -4 646 67 459 206 788 503 1197 52 72 61 133 26 192 -34
58 -68 79 -135 83 -45 3 -65 0 -90 -16z"/>
<path d="M1252 3779 c-36 -18 -57 -42 -123 -142 -417 -631 -473 -1446 -145
-2122 124 -257 224 -393 303 -414 103 -28 203 50 203 159 0 48 -10 69 -86 181
-115 172 -213 406 -259 624 -105 487 -9 978 275 1410 71 109 72 111 68 168 -5
69 -27 103 -88 135 -55 28 -93 28 -148 1z"/>
<path d="M1745 3315 c-57 -20 -97 -71 -165 -209 -68 -139 -100 -228 -131 -376
-30 -140 -33 -409 -5 -545 51 -258 187 -549 276 -595 112 -57 244 18 244 139
-1 37 -13 69 -62 162 -34 64 -73 148 -86 187 -108 317 -73 655 98 952 52 90
60 118 46 169 -26 97 -123 149 -215 116z"/>
</g>
</svg>
